<?xml version="1.0" standalone="no"?>
<!DOCTYPE svg PUBLIC "-//W3C//DTD SVG 20010904//EN"
 "http://www.w3.org/TR/2001/REC-SVG-20010904/DTD/svg10.dtd">
<svg version="1.0" xmlns="http://www.w3.org/2000/svg"
 width="1248.000000pt" height="296.000000pt" viewBox="0 0 1248.000000 296.000000"
 preserveAspectRatio="xMidYMid meet">

<g transform="translate(0.000000,296.000000) scale(0.100000,-0.100000)"
fill="#000000" stroke="none">
<path d="M11020 2628 c-89 -15 -131 -67 -139 -170 l-6 -73 -37 3 c-33 3 -37 1
-43 -28 -4 -17 -4 -46 -1 -63 6 -30 9 -32 48 -32 l43 0 3 -201 2 -202 40 -4
c22 -2 58 -2 80 0 l40 4 2 202 3 201 63 3 63 3 -3 57 -3 57 -65 0 -65 0 -3 40
c-5 63 14 80 89 80 57 0 65 2 76 25 21 40 16 77 -9 84 -48 15 -135 21 -178 14z"/>
<path d="M1067 2623 c-4 -3 -7 -176 -7 -384 l0 -377 43 -4 c23 -3 61 -2 85 0
l42 5 0 173 c0 173 0 174 24 189 14 9 37 15 53 13 24 -3 29 -9 35 -43 4 -22 7
-96 7 -165 1 -143 9 -165 67 -176 48 -9 128 21 118 45 -16 39 -23 105 -24 226
0 157 -9 193 -57 235 -34 30 -40 32 -99 28 -45 -3 -72 -10 -93 -26 l-29 -21
-4 125 c-3 118 -4 127 -27 145 -23 19 -119 28 -134 12z"/>
<path d="M4030 2285 c0 -375 2 -389 55 -413 14 -7 61 -12 104 -12 90 0 94 4
85 74 -6 40 -9 45 -39 50 -18 4 -36 14 -39 22 -3 9 -6 141 -6 295 l0 280 -25
24 c-20 21 -34 25 -80 25 l-55 0 0 -345z"/>
<path d="M10347 2623 c-4 -3 -7 -59 -7 -122 l0 -116 -72 3 c-67 3 -77 1 -119
-26 -35 -22 -54 -45 -75 -88 -25 -51 -28 -69 -29 -153 0 -116 20 -183 70 -231
31 -30 43 -35 100 -38 55 -4 71 -1 111 22 46 26 46 26 71 7 34 -27 80 -36 100
-19 28 23 43 70 30 93 -8 13 -14 121 -17 328 l-5 309 -24 19 c-23 19 -119 28
-134 12z m-33 -363 c26 -9 26 -10 26 -129 l0 -120 -30 -16 c-38 -20 -63 -13
-79 21 -39 87 -10 254 45 254 7 0 24 -4 38 -10z"/>
<path d="M4377 2603 c-34 -5 -51 -42 -43 -93 7 -46 29 -60 91 -60 72 0 89 15
89 79 0 28 -4 55 -10 60 -11 12 -90 20 -127 14z"/>
<path d="M6097 2603 c-34 -5 -51 -42 -43 -93 7 -46 29 -60 91 -60 72 0 89 15
89 79 0 28 -4 55 -10 60 -11 12 -90 20 -127 14z"/>
<path d="M9257 2603 c-15 -2 -32 -14 -38 -25 -11 -20 -7 -103 5 -115 12 -12
111 -15 139 -4 25 10 27 15 27 65 0 32 -5 58 -13 64 -16 13 -82 22 -120 15z"/>
<path d="M480 2505 l0 -75 88 0 87 0 -3 -284 -4 -283 49 -5 c26 -2 67 -2 91 0
l42 4 0 283 0 283 71 4 c82 4 109 25 109 83 0 68 15 65 -271 65 l-259 0 0 -75z"/>
<path d="M5714 2519 c-12 -13 -21 -42 -24 -78 l-5 -56 -34 3 c-41 3 -51 -9
-51 -63 0 -51 7 -60 50 -60 l35 0 5 -165 c7 -230 16 -243 176 -238 96 3 99 4
102 27 2 13 1 39 -3 57 -5 31 -9 34 -39 34 -19 0 -43 8 -55 18 -20 16 -22 24
-19 142 l3 125 63 3 63 3 -3 57 -3 57 -60 0 -60 0 -3 78 -3 77 -58 0 c-46 0
-62 -4 -77 -21z"/>
<path d="M1745 2386 c-98 -37 -151 -144 -143 -291 5 -98 34 -164 91 -209 35
-28 47 -31 122 -34 86 -4 171 13 209 41 19 14 19 16 2 61 -19 49 -32 55 -83
35 -15 -5 -49 -10 -76 -11 -55 0 -81 18 -92 65 l-7 27 135 0 c156 0 147 -6
147 103 -1 94 -28 151 -93 191 -57 35 -150 44 -212 22z m128 -123 c8 -10 17
-31 19 -48 l3 -30 -62 -3 c-62 -3 -63 -2 -63 23 0 30 41 75 68 75 10 0 26 -8
35 -17z"/>
<path d="M2495 2385 c-124 -25 -130 -28 -127 -61 2 -16 10 -43 17 -60 l13 -32
81 20 c96 22 134 13 139 -35 3 -26 2 -27 -46 -27 -139 0 -225 -71 -225 -186 0
-63 27 -112 76 -139 47 -25 155 -18 196 13 l30 22 51 -27 c59 -30 73 -27 104
26 17 29 17 34 2 65 -12 26 -16 66 -16 167 0 114 -3 139 -21 176 -37 78 -137
106 -274 78z m125 -348 c0 -37 -4 -46 -25 -55 -52 -24 -85 -9 -85 39 0 34 32
59 77 59 32 0 33 -1 33 -43z"/>
<path d="M3096 2375 l-48 -25 -25 20 c-17 13 -41 20 -69 20 l-44 0 0 -375 0
-375 60 0 c90 0 100 14 100 136 0 88 2 96 18 89 108 -44 228 17 267 136 23 68
23 196 0 264 -41 121 -151 168 -259 110z m90 -146 c23 -46 17 -198 -10 -228
-21 -23 -56 -27 -87 -11 -17 10 -19 22 -19 120 0 124 12 150 70 150 23 0 33
-7 46 -31z"/>
<path d="M3656 2375 l-48 -25 -25 20 c-17 13 -41 20 -69 20 l-44 0 0 -375 0
-375 60 0 c90 0 100 14 100 136 0 88 2 96 18 89 108 -44 228 17 267 136 23 68
23 196 0 264 -41 121 -151 168 -259 110z m90 -146 c23 -46 17 -198 -10 -228
-21 -23 -56 -27 -87 -11 -17 10 -19 22 -19 120 0 124 12 150 70 150 23 0 33
-7 46 -31z"/>
<path d="M4753 2376 c-97 -46 -141 -142 -130 -285 8 -118 47 -188 121 -222 57
-26 167 -25 226 2 87 39 99 68 52 120 l-28 31 -42 -21 c-56 -29 -102 -27 -132
4 -19 20 -24 38 -28 102 -2 50 1 93 10 118 12 36 16 40 48 40 39 0 60 -28 60
-82 0 -28 4 -33 33 -38 47 -9 104 16 113 50 10 40 -2 93 -30 130 -55 72 -180
95 -273 51z"/>
<path d="M5259 2385 c-42 -8 -88 -19 -103 -25 -25 -9 -27 -14 -21 -43 4 -17
14 -44 21 -59 l14 -27 52 15 c74 23 138 22 154 -1 30 -40 19 -52 -54 -57 -128
-9 -193 -58 -208 -156 -9 -60 19 -128 66 -160 30 -20 45 -23 105 -20 53 2 78
9 102 26 l32 23 28 -20 c42 -30 86 -35 105 -14 29 32 38 69 23 89 -11 14 -14
53 -15 149 0 72 -5 148 -11 170 -28 103 -127 141 -290 110z m131 -344 c0 -42
-11 -56 -53 -66 -34 -9 -57 8 -57 43 0 39 27 62 72 62 38 0 38 0 38 -39z"/>
<path d="M6490 2387 c-53 -17 -116 -86 -134 -148 -35 -118 -12 -251 56 -325
50 -54 91 -68 191 -63 65 4 81 9 118 35 66 48 93 110 97 219 3 73 0 101 -18
147 -24 66 -80 121 -137 137 -48 14 -127 12 -173 -2z m136 -138 c23 -26 32
-161 15 -221 -24 -80 -105 -68 -124 18 -12 56 -3 169 17 199 21 32 65 34 92 4z"/>
<path d="M7925 2388 c-16 -6 -37 -17 -46 -24 -21 -18 -26 -18 -56 6 -17 13
-41 20 -69 20 l-44 0 0 -375 0 -375 60 0 c90 0 100 14 100 136 0 88 2 96 18
89 66 -27 151 -13 207 36 122 107 104 420 -28 482 -39 19 -97 21 -142 5z m62
-155 c22 -33 25 -163 4 -211 -16 -39 -53 -52 -90 -31 -25 14 -26 19 -29 118
-3 96 -1 106 19 127 31 33 74 32 96 -3z"/>
<path d="M8385 2388 c-40 -14 -92 -64 -118 -113 -15 -29 -22 -65 -25 -127 -7
-148 29 -237 115 -279 93 -45 335 -4 317 55 -17 57 -29 71 -59 68 -173 -15
-160 -16 -183 13 -12 15 -22 36 -22 46 0 18 10 19 134 19 154 0 146 -6 146
106 0 105 -58 188 -151 214 -43 13 -115 12 -154 -2z m118 -120 c18 -14 39 -73
29 -82 -3 -3 -32 -6 -64 -6 -54 0 -58 1 -58 24 0 29 36 76 59 76 9 0 25 -6 34
-12z"/>
<path d="M9646 2385 c-55 -19 -103 -70 -127 -134 -17 -45 -20 -73 -17 -146 4
-109 31 -171 97 -219 35 -25 54 -31 112 -34 100 -6 134 3 185 50 140 129 101
426 -63 482 -57 19 -134 20 -187 1z m140 -141 c22 -32 30 -155 15 -210 -8 -31
-18 -45 -40 -54 -65 -26 -96 31 -89 166 3 62 9 89 23 104 26 29 71 26 91 -6z"/>
<path d="M11350 2387 c-53 -17 -116 -86 -134 -148 -35 -118 -12 -251 56 -325
50 -54 91 -68 191 -63 65 4 81 9 118 35 66 48 93 110 97 219 3 73 0 101 -18
147 -24 66 -80 121 -137 137 -48 14 -127 12 -173 -2z m136 -138 c23 -26 32
-161 15 -221 -24 -80 -105 -68 -124 18 -12 56 -3 169 17 199 21 32 65 34 92 4z"/>
<path d="M4306 2374 c-26 -26 -16 -114 13 -114 37 0 41 -19 41 -211 l0 -187
43 -4 c23 -3 61 -2 85 0 l42 5 0 221 c0 203 -2 224 -20 254 -11 18 -32 37 -46
42 -41 16 -140 12 -158 -6z"/>
<path d="M6026 2374 c-26 -26 -16 -114 13 -114 37 0 41 -19 41 -211 l0 -187
43 -4 c23 -3 61 -2 85 0 l42 5 0 221 c0 203 -2 224 -20 254 -11 18 -32 37 -46
42 -41 16 -140 12 -158 -6z"/>
<path d="M6910 2126 l0 -264 43 -4 c23 -3 61 -2 85 0 l42 5 0 173 c0 173 0
174 24 189 36 24 79 16 87 -15 4 -14 7 -88 8 -165 1 -159 8 -180 67 -191 48
-9 128 21 118 45 -15 36 -23 113 -23 239 -1 149 -10 183 -60 225 -26 21 -43
27 -82 27 -48 0 -120 -27 -134 -50 -4 -6 -18 2 -35 20 -25 26 -35 30 -84 30
l-56 0 0 -264z"/>
<path d="M8777 2361 c-21 -36 -21 -51 -2 -87 12 -23 15 -70 15 -220 l0 -192
43 -4 c23 -3 61 -2 85 0 l42 5 0 162 c0 159 0 162 25 185 19 18 36 23 71 22
43 0 47 2 61 35 8 20 15 54 16 77 l2 41 -44 3 c-64 5 -90 -5 -127 -45 -32 -34
-32 -35 -44 -13 -15 28 -68 60 -100 60 -18 0 -31 -9 -43 -29z"/>
<path d="M9182 2378 c-13 -13 -16 -75 -6 -102 3 -9 14 -16 23 -16 37 0 41 -19
41 -211 l0 -187 43 -4 c23 -3 61 -2 85 0 l43 5 -3 226 c-3 246 -7 264 -64 289
-33 16 -147 15 -162 0z"/>
<path d="M11768 2368 c-26 -41 -27 -56 -7 -94 17 -34 19 -60 19 -225 l0 -187
43 -4 c23 -3 61 -2 85 0 l42 5 0 163 c0 155 1 164 22 184 23 21 29 23 88 24
31 1 36 5 47 38 6 20 13 54 15 75 l3 38 -44 3 c-63 5 -91 -5 -127 -44 -32 -33
-33 -34 -44 -14 -15 28 -69 60 -101 60 -17 0 -32 -8 -41 -22z"/>
<path d="M2995 1133 c-36 -9 -45 -25 -45 -72 0 -69 8 -76 90 -76 52 0 73 4 80
15 14 22 12 93 -2 113 -14 18 -87 30 -123 20z"/>
<path d="M4687 1133 c-15 -2 -32 -14 -38 -25 -11 -20 -7 -103 5 -115 12 -12
111 -15 139 -4 25 10 27 15 27 65 0 32 -5 58 -13 64 -16 13 -82 22 -120 15z"/>
<path d="M6797 1133 c-15 -2 -32 -14 -38 -25 -11 -20 -7 -103 5 -115 12 -12
111 -15 139 -4 25 10 27 15 27 65 0 32 -5 58 -13 64 -16 13 -82 22 -120 15z"/>
<path d="M4304 1049 c-12 -13 -21 -42 -24 -78 l-5 -56 -34 3 c-41 3 -51 -9
-51 -63 0 -51 7 -60 50 -60 l35 0 5 -165 c7 -230 16 -243 176 -238 96 3 99 4
102 27 2 13 1 39 -3 57 -5 31 -9 34 -39 34 -19 0 -43 8 -55 17 -20 17 -22 25
-19 143 l3 125 63 3 63 3 -3 57 -3 57 -60 0 -60 0 -3 78 -3 77 -58 0 c-46 0
-62 -4 -77 -21z"/>
<path d="M479 916 c-91 -32 -143 -108 -155 -226 -12 -126 35 -237 122 -287 52
-30 169 -32 230 -4 67 30 108 94 123 192 19 115 -15 235 -81 288 -61 49 -163
65 -239 37z m117 -124 c24 -16 34 -55 34 -136 0 -95 -9 -130 -40 -146 -27 -15
-57 -5 -77 26 -24 37 -24 201 0 237 17 27 58 36 83 19z"/>
<path d="M1418 920 c-45 -13 -93 -57 -119 -107 -21 -43 -24 -60 -24 -168 0
-103 3 -126 22 -160 50 -95 137 -129 230 -90 45 19 43 19 43 -10 0 -36 -19
-71 -47 -84 -34 -15 -103 -14 -153 4 -24 8 -44 14 -45 13 -15 -18 -35 -73 -35
-97 0 -27 4 -30 53 -42 28 -8 93 -14 142 -14 123 1 175 28 221 115 16 30 19
68 24 277 3 174 9 246 18 255 18 18 15 52 -9 82 -23 30 -56 33 -99 11 -26 -13
-32 -13 -72 5 -44 20 -103 24 -150 10z m130 -136 c20 -14 22 -23 22 -124 0
-101 -2 -110 -22 -124 -12 -9 -35 -16 -51 -16 -41 0 -60 51 -55 150 5 115 44
158 106 114z"/>
<path d="M1969 915 c-42 -8 -88 -19 -103 -25 -25 -9 -27 -14 -21 -43 4 -17 14
-44 21 -59 l14 -27 52 15 c74 23 138 22 154 -1 30 -40 19 -52 -54 -57 -128 -9
-193 -58 -208 -156 -9 -60 19 -128 66 -160 30 -20 45 -23 105 -20 53 2 78 9
102 26 l32 23 28 -20 c42 -30 86 -35 105 -14 29 32 38 69 23 89 -11 14 -14 53
-15 149 0 72 -5 148 -11 170 -28 103 -127 141 -290 110z m131 -344 c0 -42 -11
-56 -53 -66 -34 -9 -57 8 -57 43 0 39 27 62 72 62 38 0 38 0 38 -39z"/>
<path d="M3849 915 c-42 -8 -88 -19 -103 -25 -25 -9 -27 -14 -21 -43 4 -17 14
-44 21 -59 l14 -27 52 15 c74 23 138 22 154 -1 30 -40 19 -52 -54 -57 -128 -9
-193 -58 -208 -156 -9 -60 19 -128 66 -160 30 -20 45 -23 105 -20 53 2 78 9
102 26 l32 23 28 -20 c42 -30 86 -35 105 -14 29 32 38 69 23 89 -11 14 -14 53
-15 149 0 72 -5 148 -11 170 -28 103 -127 141 -290 110z m131 -344 c0 -42 -11
-56 -53 -66 -34 -9 -57 8 -57 43 0 39 27 62 72 62 38 0 38 0 38 -39z"/>
<path d="M5076 915 c-55 -19 -103 -70 -127 -134 -17 -45 -20 -73 -17 -146 4
-109 31 -171 97 -219 35 -25 54 -31 112 -34 100 -6 134 3 185 50 140 129 101
426 -63 482 -57 19 -134 20 -187 1z m140 -141 c22 -32 30 -155 15 -210 -8 -31
-18 -45 -40 -54 -65 -26 -96 31 -89 166 3 62 9 89 23 104 26 29 71 26 91 -6z"/>
<path d="M6161 918 c-107 -36 -153 -176 -85 -257 13 -16 62 -45 108 -66 89
-39 109 -61 80 -82 -26 -19 -76 -16 -136 8 l-53 21 -17 -22 c-25 -30 -34 -90
-17 -101 38 -25 125 -41 202 -37 131 6 194 50 204 143 11 94 -37 154 -160 201
-73 28 -89 46 -64 71 14 15 21 15 74 1 32 -9 68 -19 80 -23 26 -8 51 24 60 78
5 34 4 35 -43 51 -61 22 -188 29 -233 14z"/>
<path d="M7157 916 c-73 -27 -117 -88 -117 -161 0 -72 52 -129 152 -167 63
-24 78 -35 78 -58 0 -36 -64 -40 -142 -10 -29 11 -54 20 -56 20 -10 0 -42 -70
-42 -91 0 -22 8 -30 43 -44 54 -23 202 -32 252 -15 124 41 165 186 75 271 -22
21 -65 46 -106 61 -76 28 -95 47 -74 73 16 19 55 15 128 -12 37 -14 45 -14 56
-2 14 15 36 73 36 95 0 36 -212 67 -283 40z"/>
<path d="M8446 915 c-55 -19 -103 -70 -127 -134 -17 -45 -20 -73 -17 -146 4
-109 31 -171 97 -219 35 -25 54 -31 112 -34 100 -6 134 3 185 50 140 129 101
426 -63 482 -57 19 -134 20 -187 1z m140 -141 c22 -32 30 -155 15 -210 -8 -31
-18 -45 -40 -54 -65 -26 -96 31 -89 166 3 62 9 89 23 104 26 29 71 26 91 -6z"/>
<path d="M10009 916 c-91 -32 -143 -108 -155 -226 -12 -126 35 -237 122 -287
52 -30 169 -32 230 -4 67 30 108 94 123 192 19 115 -15 235 -81 288 -61 49
-163 65 -239 37z m117 -124 c24 -16 34 -55 34 -136 0 -95 -9 -130 -40 -146
-27 -15 -57 -5 -77 26 -24 37 -24 201 0 237 17 27 58 36 83 19z"/>
<path d="M10615 906 l-48 -25 -27 20 c-19 15 -39 19 -71 17 l-44 -3 -3 -372
-2 -373 64 0 c58 0 67 3 85 26 18 22 21 41 21 115 l0 88 31 -11 c46 -16 126
-3 170 28 74 51 104 137 97 277 -5 98 -25 152 -70 194 -52 49 -129 56 -203 19z
m72 -124 c36 -23 46 -171 15 -232 -19 -38 -54 -50 -92 -30 -18 10 -20 20 -20
125 0 106 1 115 22 129 24 17 56 20 75 8z"/>
<path d="M11100 917 c-91 -29 -144 -132 -143 -278 1 -113 30 -184 94 -226 40
-26 50 -28 143 -28 83 0 110 4 149 22 52 24 58 42 31 95 -13 25 -20 29 -42 24
-89 -18 -121 -21 -146 -15 -33 9 -55 35 -56 67 0 22 2 22 134 22 l135 0 6 54
c21 164 -73 278 -225 275 -25 -1 -61 -6 -80 -12z m130 -127 c11 -11 20 -33 20
-50 0 -30 0 -30 -58 -30 -32 0 -61 3 -64 6 -4 3 -2 20 3 37 16 56 62 74 99 37z"/>
<path d="M887 891 c-21 -36 -21 -51 -2 -87 12 -23 15 -70 15 -220 l0 -192 43
-4 c23 -3 61 -2 85 0 l42 5 0 162 c0 159 0 162 25 185 19 18 36 23 71 22 43 0
47 2 61 35 8 20 15 54 16 77 l2 41 -44 3 c-64 5 -90 -5 -127 -45 -32 -34 -32
-35 -44 -13 -15 28 -68 60 -100 60 -18 0 -31 -9 -43 -29z"/>
<path d="M2387 913 c-4 -3 -7 -122 -7 -264 l0 -257 43 -4 c23 -3 61 -2 85 0
l42 5 0 173 0 173 30 16 c39 20 67 19 80 -4 5 -11 10 -84 10 -163 0 -95 5
-151 13 -168 18 -35 71 -47 128 -28 38 13 44 19 41 39 -2 13 -7 103 -11 199
-6 152 -10 181 -29 217 -27 51 -65 73 -127 73 -43 0 -116 -28 -129 -49 -4 -5
-19 4 -35 20 -25 24 -38 29 -79 29 -27 0 -52 -3 -55 -7z"/>
<path d="M2922 911 c-9 -5 -12 -25 -10 -62 2 -45 6 -54 23 -57 41 -7 45 -27
45 -218 l0 -182 43 -4 c23 -3 61 -2 85 0 l43 5 -3 221 c-3 247 -10 274 -69
295 -37 13 -138 14 -157 2z"/>
<path d="M4612 908 c-13 -13 -16 -75 -6 -102 3 -9 14 -16 23 -16 37 0 41 -19
41 -211 l0 -187 43 -4 c23 -3 61 -2 85 0 l43 5 -3 226 c-3 246 -7 264 -64 289
-33 16 -147 15 -162 0z"/>
<path d="M5500 656 l0 -264 43 -4 c23 -3 61 -2 85 0 l42 5 0 173 c0 167 1 173
22 188 27 19 59 21 76 4 8 -8 12 -56 13 -147 0 -150 11 -199 49 -219 30 -15
92 -10 124 12 23 14 23 17 10 53 -9 25 -13 89 -14 188 -1 166 -12 212 -65 253
-41 32 -129 31 -179 -3 -20 -14 -39 -25 -41 -25 -2 0 -15 11 -29 25 -21 21
-35 25 -81 25 l-55 0 0 -264z"/>
<path d="M6722 908 c-13 -13 -16 -75 -6 -102 3 -9 14 -16 23 -16 37 0 41 -19
41 -211 l0 -187 43 -4 c23 -3 61 -2 85 0 l43 5 -3 226 c-3 246 -7 264 -64 289
-33 16 -147 15 -162 0z"/>
<path d="M7760 656 l0 -264 40 -4 c22 -2 58 -2 80 0 l40 4 0 168 c0 183 3 193
57 206 53 14 58 1 63 -172 3 -87 9 -167 14 -176 14 -30 77 -43 127 -27 38 12
44 17 41 39 -2 14 -7 106 -11 205 -5 144 -10 187 -24 213 -42 77 -145 96 -230
42 -26 -16 -47 -25 -47 -20 0 5 -10 18 -22 30 -16 15 -35 20 -75 20 l-53 0 0
-264z"/>
<path d="M8828 913 c-10 -2 -18 -7 -18 -10 0 -14 101 -443 109 -465 17 -45 38
-53 129 -51 46 0 88 5 92 10 4 4 18 81 31 171 13 89 26 162 29 162 3 0 15 -68
26 -151 28 -193 29 -195 151 -192 50 1 89 6 93 12 14 23 123 501 116 508 -4 5
-40 8 -79 8 l-72 0 -33 -170 c-18 -93 -36 -181 -39 -195 -4 -15 -17 48 -35
165 -17 105 -32 192 -35 195 -2 3 -44 5 -93 5 -49 0 -91 -2 -93 -5 -3 -3 -17
-88 -32 -190 -15 -102 -28 -186 -29 -187 -1 -1 -17 76 -35 171 -18 96 -39 183
-47 195 -12 17 -25 21 -67 20 -29 -1 -60 -3 -69 -6z"/>
<path d="M11500 656 l0 -264 43 -4 c23 -3 61 -2 85 0 l42 5 0 173 c0 173 0
174 24 189 36 24 79 16 87 -15 4 -14 7 -88 8 -165 1 -159 8 -180 67 -191 48
-9 128 21 118 45 -15 36 -23 113 -23 239 -1 149 -10 183 -60 225 -26 21 -43
27 -82 27 -48 0 -120 -27 -134 -50 -4 -6 -18 2 -35 20 -25 26 -35 30 -84 30
l-56 0 0 -264z"/>
<path d="M3246 894 c-3 -9 -6 -36 -6 -60 l0 -45 105 3 c58 2 105 0 105 -3 0
-4 -7 -13 -17 -20 -9 -8 -58 -70 -110 -138 -95 -127 -101 -140 -87 -210 l7
-31 174 0 c210 0 233 7 233 77 0 68 9 65 -182 48 l-46 -4 79 102 c127 162 141
186 134 227 -13 76 3 70 -200 70 -157 0 -184 -2 -189 -16z"/>
<path d="M12103 539 c-28 -8 -33 -15 -38 -52 -9 -62 6 -94 50 -103 43 -8 113
0 127 14 16 16 13 112 -4 128 -18 18 -95 26 -135 13z"/>
</g>
</svg>
